<svg id="svg" viewBox="0 0 668 960" xmlns="http://www.w3.org/2000/svg" xmlns:xlink="http://www.w3.org/1999/xlink" version="1.1" width="835" height="1200" preserveAspectRatio="xMidYMid meet" buffered-rendering="static" style="background: rgb(255, 255, 255);"><g><path d="M 170.75 82.25 C 111.48749999999998 82.1125 62.99340326929456 82.3375 62.98534059843236 82.75 C 62.97727792757015 83.1625 62.98779653823349 162.925 63.00871528879533 260 C 63.02963403935718 357.075 63.14873077006261 436.6053879523739 63.27337469036297 436.7341954497199 C 63.39801861066334 436.8630029470658 111.65 436.9766226583604 170.5 436.9866836970412 C 229.35 436.996744735722 277.8375 437.00385678334806 278.25 437.00248824732137 C 278.6625 437.0011197112946 278.8875 357.2375 278.75 259.75 L 278.5 82.5 L 170.75 82.25 Z " class="odd" fill="#000000"></path><path d="M 593 94.46019824622215 C 574.025 94.31446568032621 552.65 94.59273916055297 545.5 95.07858375783715 C 538.35 95.56442835512132 526.65 97.13077475355813 519.5 98.55935353214115 C 512.35 99.98793231072416 502.675 102.28743838435636 498 103.6693670291016 C 493.325 105.05129567384682 486.35 107.29994084691619 482.5 108.66635630258908 C 478.65 110.03277175826197 472.125 112.76796409906878 468 114.74456150438198 C 463.875 116.72115890969518 460.3875 118.71224060065555 460.25 119.1691874842939 C 460.1125 119.62613436793225 459.325 120 458.5 120 C 457.675 120 453.5239598169831 122.3625 449.2754662599625 125.25 C 445.0269727029419 128.1375 437.76908872034113 134.1 433.14683518751633 138.5 C 428.5245816546916 142.9 422.6034086456863 149.2 419.98867294528236 152.5 C 417.3739372448784 155.8 412.7282655574651 163 409.6649580843639 168.5 C 406.6016506112627 174 402.88769363923797 182.1 401.4117203687534 186.5 C 399.9357470982688 190.9 398.3352142139462 196.075 397.8549806258143 198 C 397.37474703768237 199.925 396.3135678381348 205.1 395.49680462681977 209.5 C 394.6800414155047 213.9 393.6716299698414 222.13221425621606 393.25589030312346 227.79380945825793 L 392.5 238.08761891651585 L 385.5 241.29229633998 C 381.65 243.05486892288525 375.575 246.6953491532984 372 249.38225240756475 C 368.425 252.0691556618311 364.3626158560518 255.44483656505616 362.9724796801151 256.8837655258427 C 361.5823435041784 258.3226944866292 358.65050760085495 261.975 356.4572887838408 265 C 354.26406996682664 268.025 351.92636491743735 271.625 351.2623886740869 273 C 350.5984124307364 274.375 349.19827359086025 277.75 348.15096902991763 280.5 C 347.103664468975 283.25 345.68119147028847 288.875 344.9899179217253 293 C 344.2029894848098 297.6957963443321 343.9699080179574 303.95851784199044 344.36652846216884 309.75 C 344.85706301298615 316.91282314844796 345.72643800382434 320.74871574048956 348.21944521873104 326.75 C 349.9972217513371 331.0295473106785 353.63352619549306 337.18680208205535 356.3398150854408 340.5 C 359.0353236418291 343.8 363.32407329340015 348.4767296902879 365.8703698667098 350.89273264508427 C 368.4166664400194 353.30873559988055 374.1 357.6561009487947 378.5 360.5535445315601 C 382.9 363.45098811432547 390.775 367.85911636459883 396 370.3493850877231 C 401.225 372.8396538108473 410.45 376.4874473958851 416.5 378.45559305447364 C 422.55 380.42373871306216 432.9 383.3507042037954 439.5 384.95996081165856 C 446.1 386.5692174195217 454.425 388.36972084444915 458 388.9610795337195 C 461.575 389.5524382229899 464.6315461417911 390.14061479169544 464.7923247595358 390.26813857528737 C 464.9531033772805 390.39566235887935 464.4058834144039 394.325 463.57628039758777 399 C 462.74667738077164 403.675 461.598132327407 412.45 461.0239580567773 418.5 C 460.44978378614763 424.55 459.58707640059515 436.475 459.10683053332724 445 C 458.62658466605933 453.525 458.29358357763294 460.57164998150137 458.3668281146019 460.65922218111416 C 458.44007265157086 460.7467943807269 460.3 460.90289589287204 462.5 461.0061144303255 C 464.7 461.109332967779 467.2875 461.1501829862776 468.25 461.09689224921135 C 469.80142366234327 461.01099457599753 470.0012148300369 459.7801739258229 470.0107059712635 450.25 C 470.0165942554585 444.3375 470.6701872366054 433.425 471.4631348182566 426 C 472.2560823999078 418.575 473.4887647128392 408.3357906399476 474.20242884699303 403.2462014221058 C 474.9160929811469 398.156612204264 475.8375 393.994112204264 476.25 393.9962014221058 C 476.6625 393.9982906399476 477.226082550446 396.1375 477.50240566765774 398.75 C 477.7787287848695 401.3625 479.14620029742196 413.175 480.5412312511076 425 C 481.93626220479325 436.825 483.51501732602264 449.425 484.0495759649507 453 C 484.63915084842273 456.9429354516451 485.8040607133544 460.3851377282767 487.0107503815008 461.75 C 488.1048376716754 462.9875 490.2375 464.4738551933615 491.75 465.05301154080325 C 493.8020774544242 465.8387792652145 498.81443028174124 465.5827529375142 511.5 464.04419988163124 C 520.85 462.91019712164484 536.6 460.9367440186025 546.5 459.6587485415372 C 557.9336356049595 458.1827753506734 565.5031945603534 456.72679773872267 567.25 455.6675602007092 C 568.7625 454.75040209031914 569.9799635920185 453.4375 569.9554746489301 452.75 C 569.9309857058417 452.0625 570.6059857058417 450.9375 571.4554746489301 450.25 C 572.7101854596694 449.2345498409348 573.7036495228044 449.34578410367106 576.75 450.8428071742287 C 578.8125 451.85635112005446 582.525 453.251653442127 585 453.9434790010565 C 587.6535543655793 454.6852150544371 592.9877306427945 455.04243423185534 598 454.8140631484672 C 604.9678629899797 454.49659050154435 607.3561942114819 453.93769002368435 611.25 451.7133913216393 C 613.8625 450.2210260947377 615.8875 448.75879027722317 615.75 448.4639783938293 C 615.6125 448.1691665104354 613.025 448.6897451904141 610 449.6208199048931 C 605.9905987530663 450.8548867218255 602.7383832918308 451.1453559104139 598 450.69259091902404 C 594.425 450.3509902623171 589.025 448.9507756815559 586 447.581002961777 C 582.975 446.21123024199807 577.7157954459703 443.15764300841596 574.3128787688229 440.79525355381674 C 570.9099620916755 438.4328640992175 565.7821797965106 434.25 562.9178070017897 431.5 C 560.0534342070688 428.75 555.7922177913418 424.025 553.448437189063 421 C 551.1046565867844 417.975 548.2548217821701 413.475 547.1154709565869 411 C 545.9761201310038 408.525 545.0184776699334 404.7 544.9873765986529 402.5 C 544.951651871807 399.9729359528507 545.6800326932026 397.4873565324151 546.9654145981624 395.75 C 548.084436569173 394.2375 551.025 392.1 553.5 391 C 555.975 389.9 558.9 389 560 389 C 561.1 389 563.4625 389.61992095629915 565.25 390.3776021251092 C 567.0375 391.1352832939193 570.75 393.85514792528744 573.5 396.42174575037166 C 576.25 398.98834357545593 581.425 402.5177116075163 585 404.2647858216169 C 589.1835169588984 406.3092374588599 593.4601010347783 407.5749962939934 597 407.81647702003596 C 600.4081731848572 408.04897182942005 604.0213285928312 407.6066494912182 606.5 406.6534874061258 C 608.7 405.8074871734453 611.175 404.4039431384004 612 403.53450066158166 C 612.825 402.66505818476287 613.275 401.7182871033952 613 401.43056492520907 C 612.725 401.14284274702294 610.7 401.34696867270054 608.5 401.88417809338154 C 605.4631806346492 402.62572717155103 603.2960242066885 402.4849287505162 599.5 401.2994552865898 C 596.75 400.4406483221734 593.0430703784311 398.78444076088397 591.262378618736 397.61899403928 C 589.4816868590408 396.453547317676 588.0191868590407 395.1625 588.012378618736 394.75 C 588.0055703784312 394.3375 592.6125 393.74468895851413 598.25 393.43264213003147 C 603.8875 393.12059530154875 615.7 392.20709504107316 624.5 391.4026415511968 C 633.3 390.5981880613204 643.2 389.5087075292083 646.5 388.98157370205877 C 649.8 388.45443987490916 654.075 387.56753094943224 656 387.0106649787767 C 657.925 386.4537990081211 660.175 385.9959465217209 661 385.9932150089984 C 662.2250442450091 385.98915897997915 662.7257246625886 389.05966492261 663.731423557198 402.7441243111151 C 664.408706513657 411.95985594000183 665.1962065136569 428.8375 665.481423557198 440.25 L 666 461 L 670.25 461.63451337450846 L 674.5 462.2690267490169 L 675.75 461.63451337450846 C 676.6703934005914 461.1673118365208 676.9993598033261 456.846956847451 676.997572118265 445.25 C 676.9962367833108 436.5875 676.5755693083557 423.65 676.0627555072538 416.5 C 675.5499417061519 409.35 674.9885342529326 398.61839155853943 674.8151833889888 392.65198124119877 L 674.5 381.8039624823975 L 678.5 380.3087618849389 C 680.7 379.4864015563368 685.2 377.6787036425392 688.5 376.2916554098332 C 691.8 374.9046071771273 697.425 372.3031331930111 701 370.51060211179725 C 704.575 368.7180710305834 709.3 366.24053019170543 711.5 365.0049558031794 C 713.7 363.7693814146535 719.55 359.70886539626093 724.5 355.9815868734182 C 729.45 352.2543083505755 736.5345939805054 346.12115554471166 740.243542178901 342.352358415943 C 743.9524903772964 338.58356128717435 749.4649903772964 331.7875 752.493542178901 327.25 C 755.5220939805054 322.7125 759.5157949087443 315.7375 761.3684331305428 311.75 C 763.2210713523413 307.7625 765.6380974729844 302.025 766.7396022875275 299 C 767.8411071020707 295.975 769.8127574884385 288.775 771.121047590567 283 L 773.4997568671643 272.5 L 773.4998784335821 248 C 773.4999864950886 226.22172476764965 773.2427954547034 222.27800112472872 771.1847360046585 212.5 C 769.9113408072207 206.45 767.71670350428 198.125 766.3077642203459 194 C 764.8988249364119 189.875 761.713327020697 182.225 759.2288799632017 177 C 756.7444329057065 171.775 751.6623604376202 163.225 747.9353855896768 158 C 744.2084107417334 152.775 738.3079899527479 145.575 734.8233393919313 142 C 731.3386888311147 138.425 726.6903986021416 134.1525601205189 724.4938055497688 132.50568915670868 C 722.297212497396 130.85881819289844 720.275 129.26896959665555 720 128.97269227616894 C 719.725 128.67641495568233 717.25 126.82030853105339 714.5 124.84801133254908 C 711.75 122.87571413404478 706.35 119.49149645750522 702.5 117.32752760690562 C 698.65 115.163558756306 691.45 111.75596545764333 686.5 109.75509805432189 C 681.55 107.75423065100046 673.9 105.0064708441774 669.5 103.64896515027067 C 665.1 102.29145945636394 658.35 100.46690335512703 654.5 99.59439603641087 C 650.65 98.7218887176947 643 97.2693772705667 637.5 96.36659282057084 C 629.8980244924703 95.11878458830772 619.2268155009774 94.66162650014765 593 94.46019824622215 Z " class="odd" fill="#000000"></path><path d="M 593.5 105.51985289048763 L 626.5 105.85820083027744 L 640 108.31568948724961 C 647.425 109.6673082485843 657.1 111.77818242805196 661.5 113.00652099717776 C 665.9 114.23485956630356 673.1 116.56813643683766 677.5 118.19158070947579 C 681.9 119.81502498211391 688.65 122.77516590033004 692.5 124.76967163884495 C 696.35 126.76417737735986 702.2 130.18883091606958 705.5 132.38001283597765 C 708.8 134.57119475588573 713.2930089707453 137.74458447138952 715.484464379434 139.43198998154162 C 717.6759197881227 141.11939549169372 722.787938129041 145.875 726.8445051370303 150 C 730.9010721450196 154.125 736.7864896546475 161.325 739.9232107139812 166 C 743.059931773315 170.675 747.4546996681354 178.325 749.6893615913599 183 C 751.9240235145844 187.675 755.132474053361 196 756.81925167753 201.5 C 758.5060293016991 207 760.582502149893 216.225 761.4336357846275 222 C 762.284769419362 227.775 762.9853924002122 239.1375 762.9905757420725 247.25 C 762.9958211795048 255.45968639888454 762.318450878497 266.54496368891074 761.4629407463804 272.25 C 760.6175581568895 277.8875 758.790766515352 286.1 757.4034037651859 290.5 C 756.0160410150198 294.9 753.6900624089873 301.2 752.234562418447 304.5 C 750.7790624279068 307.8 747.2658155043038 314.1 744.4273470326627 318.5 C 741.5888785610216 322.9 736.844033831183 329.15503948327006 733.8832476330213 332.40008774060016 C 730.9224614348595 335.64513599793025 725.35 340.86907486045124 721.5 344.00884076842453 C 717.65 347.14860667639783 711.35 351.6592554814618 707.5 354.0325047796777 C 703.65 356.4057540778936 697.575 359.78743810768816 694 361.5473581792211 C 690.425 363.307278250754 683.9 366.12489105734545 679.5 367.8087199716465 C 675.1 369.49254888594754 668.575 371.7571350223818 665 372.8411336081672 C 661.425 373.9251321939525 653.775 375.7747766743136 648 376.95145467563634 C 642.225 378.128132676959 629.85 379.71224641186706 620.5 380.4717074198764 C 611.15 381.23116842788573 597.425 382.1380682873667 590 382.4870404409452 L 576.5 383.12153526563344 L 570.5 380.6173115340654 L 564.5 378.1130878024973 L 563.8179643535343 373.8065439012487 C 563.4428447479781 371.4379447555619 562.4856077365604 364.775 561.6907709948282 359 C 560.8959342530959 353.225 560.3685578315926 348.275 560.5188233914873 348 C 560.669088951382 347.725 564.7763259627998 347.17404260693104 569.6460167501934 346.7756502376245 C 574.5157075375871 346.377257868318 582.55 345.16484793159043 587.5 344.0814059337855 C 592.45 342.9979639359806 599.875 340.9439767078597 604 339.51698987129464 C 608.125 338.0900030347296 616.675 334.33073318849574 623 331.1630568796638 C 629.325 327.9953805708319 637.65 323.31324154533314 641.5 320.7583034896666 C 645.35 318.2033654340001 652.55 312.81159974316995 657.5 308.7766019544886 C 664.7462068143693 302.8698487277598 666.5535615177307 300.8614669756702 666.7748634579757 298.4701211693522 C 666.9260383598623 296.8365545262085 666.4760383598623 294.9174635920186 665.7748634579757 294.20547464893014 C 665.0736885560891 293.4934857058417 663.6 292.94897053625755 662.5 292.99544093874306 C 661.4 293.04191134122857 656.45 296.38620078271964 651.5 300.42719525316767 C 646.55 304.4681897236157 638.675 310.2653599532623 634 313.3097957634936 C 629.325 316.35423157372486 620.775 321.09587836358577 615 323.8467886298512 C 609.225 326.59769889611664 601.575 329.8039931614796 598 330.9718869973244 C 594.425 332.13978083316925 588.575 333.7255821994359 585 334.4958900334725 C 581.425 335.26619786750916 574.167467611578 336.25724854208374 568.8721502479511 336.6982248658605 L 559.2443004959024 337.5 L 558.5164159798469 333 C 558.1160794960165 330.525 556.9361118844384 327.0375 555.8942657318958 325.25 C 554.7419119499159 323.27290157691533 552.7270984230847 321.6041936985298 550.75 320.98941873974616 C 548.3531111805514 320.24411076317796 543.5625637820705 320.48757714448004 532.5 321.9169247404534 C 524.25 322.982872733982 513.675 324.185531224571 509 324.58949916398456 L 500.5 325.3239863265546 L 489.5 319.5527698577903 C 483.45 316.37860079996995 474.675 311.14444789305225 470 307.92131895352867 C 465.325 304.6981900140051 459.925 300.69839626491836 458 299.03288840000255 C 456.075 297.36738053508674 453.825 295.98896888753393 453 295.9697514054408 C 452.175 295.9505339233476 450.6 296.8731252709092 449.5 298.01995440002213 C 447.86980589817256 299.71954902009827 447.6849029490863 300.59318095746977 448.5 302.74476783154773 C 449.0653665046911 304.2371485844569 453.41170145778034 308.3589266234366 458.5 312.22810973562724 C 463.45 315.9921295246447 470.3775010157262 320.743131111454 473.8944467016137 322.7858910396477 C 477.4113923875012 324.82865096784144 480.44889238750125 326.8375 480.6444467016137 327.25 C 480.84000101572616 327.6625 479.425 328.675 477.5 329.5 C 475.575 330.325 473.0799938364857 332.4625 471.95554185885715 334.25 C 470.26060446788847 336.9443797037433 470.0242183236543 338.44028050135745 470.57284404537353 343 C 470.9368122255861 346.025 472.0136608262436 355.25 472.9658409357235 363.5 C 473.91802104520343 371.75 474.42773506127105 378.8501320414083 474.09853874920714 379.27807120312957 C 473.7693424371432 379.7060103648509 467.425 378.90164384476844 460 377.4905900473909 C 452.575 376.07953625001335 442.45 374.0213703270403 437.5 372.9168879963397 C 432.55 371.81240566563906 424.225 369.3859365345996 419 367.5247343718075 C 413.775 365.6635322090154 406.99477202597006 363.0965660905801 403.93282672437795 361.82036521972907 C 400.8708814227858 360.5441643488781 394.1938141417665 357.025 389.0948994332239 354 C 383.3133170606365 350.56999819044324 376.940422391809 345.64435682220636 372.1620727088459 340.91253564839974 C 367.94793271898067 336.7394302550196 363.042810186054 330.8894302550196 361.26180041345333 327.91253564839974 C 359.38237430604914 324.7711416320702 357.3582488348009 319.35294225349577 356.4379483404418 315 C 355.30917100456617 309.6609802013168 355.04196348615346 305.1949544519287 355.5105653006185 299.5 C 355.8726134962714 295.1 357.1129194376385 288.8 358.2668007258786 285.5 C 359.4206820141188 282.2 361.8576941959853 277.1375 363.68238335224856 274.25 C 365.50707250851184 271.3625 369.41312567725623 266.6375 372.36250150501394 263.75 C 375.3118773327716 260.8625 380.9368773327716 256.5875 384.86250150501394 254.25 C 388.78812567725623 251.9125 394.5875 249.13450919869203 397.75 248.0766871082045 L 403.5 246.15337421640905 L 403.7400015875709 241.8266871082045 C 403.8720024607349 239.44700919869203 404.4577463774287 231.65 405.0416547357793 224.5 C 405.6255630941299 217.35 407.0356203533116 207.675 408.1751153117385 203 C 409.31461027016553 198.325 411.5805531268969 191.125 413.21054388225275 187 C 414.84053463760864 182.875 417.52407483333496 177.025 419.1739665394224 174 C 420.8238582455098 170.975 424.56820926029485 165.35 427.494746572278 161.5 C 430.42128388426124 157.65 434.56020608968413 152.7 436.69235147321785 150.5 C 438.8244968567515 148.3 442.8034590685413 144.67719379775923 445.53448972163955 142.4493195505761 C 448.2655203747378 140.22144530339293 452.8625 136.73394530339291 455.75 134.6993195505761 C 458.6375 132.66469379775924 465.8375 128.58097946698726 471.75 125.62439881552723 C 477.6625 122.66781816406721 487.45 118.65546078744303 493.5 116.70804908969572 C 499.55 114.76063739194842 507.2 112.48939763532681 510.5 111.6608496305366 C 513.8 110.83230162574638 521.675 109.39403775196678 528 108.46470768880415 C 534.325 107.53537762564153 544.225 106.41647652918289 550 105.97826080778495 C 555.775 105.54004508638702 575.35 105.33376152360323 593.5 105.51985289048763 Z " class="even" fill="#ffffff"></path><path d="M 163.5 165 C 163.775 165 164.0125000000002 191.21249999999998 164.02777777777823 223.25 C 164.04305555555624 255.28750000000002 163.8738164479377 281.275 163.65169087195932 281 C 163.42956529598092 280.725 163.01788966700622 255.075 162.73685614090442 224 C 162.45582261480263 192.925 162.40006172242113 166.9375 162.61294304672333 166.25 C 162.8258243710255 165.5625 163.225 165 163.5 165 Z " class="even" fill="#ffffff"></path><path d="M 193.7496524587151 204 L 194.02348662421298 242.5 L 193.7496524587151 281.5 C 193.59904366769126 302.95 193.4758182932172 285.625 193.4758182932172 243 C 193.4758182932172 200.375 193.59904366769126 182.825 193.7496524587151 204 Z " class="even" fill="#ffffff"></path><path d="M 479.75 187.07949983369173 C 477.4125 187.1232247422222 472.8 187.75438367241694 469.5 188.4820752341245 C 466.2 189.20976679583205 461.025 190.7294673366725 458 191.85918754710326 C 454.975 192.98890775753398 450.7 195.1957758947234 448.5 196.76333896307972 C 446.3 198.33090203143607 442.83645925667054 201.61292656543435 440.80324279260117 204.05672681640925 C 438.77002632853174 206.50052706738416 435.9170552339659 211.425 434.4633070268993 215 C 432.3568737637096 220.18005723363754 431.78762452579394 223.32761306111726 431.66006423429815 230.5 L 431.5 239.5 L 483.25 239.75 L 535 240 L 534.9773812958199 230.75 L 534.9547625916397 221.5 L 531.5891675478194 214.5 C 529.2054195694034 209.5421142081392 526.5135100768159 205.93838224376785 522.3617862519997 202.1470553654363 C 519.1378038133998 199.20293581642625 513.8 195.53180205025228 510.5 193.98898032949415 C 507.2 192.446158608736 499.8875 190.24248369428966 494.25 189.09192496405785 C 488.6125 187.94136623382605 482.0875 187.03577492516126 479.75 187.07949983369173 Z " class="odd" fill="#000000"></path><path d="M 641 187.5916012703484 C 636.875 187.34859337127628 632.375 187.35130775578872 631 187.59763323593154 C 629.625 187.84395871607438 625.8 188.76260528961814 622.5 189.63907006602878 C 619.2 190.51553484243942 614.25 192.37640049228747 611.5 193.77432706569112 C 608.75 195.17225363909478 604.25 198.44381606016495 601.5 201.04446577918037 C 598.75 203.6451154981958 595.2692855544169 208.18651285565926 593.7650790098155 211.13645990687695 C 592.260872465214 214.0864069580946 590.5686145007585 218.975 590.0045057554701 222 C 589.4403970101815 225.025 588.9836114557645 230.3125 588.9894267456546 233.75 L 589 240 L 640.5 240 C 685.3888888888889 240 692.0641855447681 239.8074433656958 692.5 238.5 C 692.775 237.675 693.0022616942492 234.6375 693.0050259872204 231.75 C 693.0077902801916 228.8625 692.2976975898351 223.8 691.4270422308726 220.5 C 690.5563868719101 217.2 688.191625177661 212.06140115181557 686.1720162436523 209.08089144847904 C 684.1524073096435 206.1003817451425 680.7 202.2008349942682 678.5 200.41523200209173 C 676.3 198.62962900991522 672.25 196.02829967395263 669.5 194.63450014439712 C 666.75 193.2407006148416 660.9 191.18526997389193 656.5 190.06687649784237 C 652.1 188.94848302179278 645.125 187.8346091694205 641 187.5916012703484 Z " class="odd" fill="#000000"></path><path d="M 479 197.1393769090315 C 480.375 197.06623394978223 485.55 197.71290170025964 490.5 198.57641635453686 C 495.45 199.43993100881409 502.2 201.44228521544576 505.5 203.02609236927395 C 508.8 204.60989952310214 513.075 207.1962804178019 515 208.77360546860672 C 516.925 210.35093051941152 519.7646622345014 213.85963862794063 521.3103605211143 216.57073459867138 C 522.8560588077271 219.28183056940213 524.4310588077271 223.4192813356207 524.8103605211143 225.76506963471266 L 525.5 230.03013926942532 L 512 229.98967268442078 L 498.5 229.94920609941622 L 496 226.88371264689803 C 494.05015867875034 224.49282232540193 492.5097143782494 223.71907750744754 489 223.36770513924623 C 486.3595947203347 223.10336298597107 483.4668918220363 223.4581914386436 482 224.2263481648293 C 480.625 224.94638455922345 479.05 226.5418359365504 478.5 227.7717956700003 L 477.5 230.00808609445463 L 459.75 230.0040430472273 L 442 230 L 442 227 C 442 225.35 442.87755718152664 221.6375 443.9501270700592 218.75 C 445.0226969585917 215.8625 447.2726969585917 212.0375 448.9501270700592 210.25 C 450.62755718152664 208.4625 454.1375 205.64281569595937 456.75 203.9840348799097 C 459.3625 202.32525406386 463.75 200.3337562282019 466.5 199.55848413400278 C 469.25 198.78321203980366 472.625 197.95167826806926 474 197.71063130792635 C 475.375 197.46958434778347 477.625 197.21251986828076 479 197.1393769090315 Z " class="even" fill="#ffffff"></path><path d="M 642 197.6478798262022 C 645.575 197.9258369001791 650.975 198.85176903685579 654 199.70550679659488 C 657.025 200.55924455633397 661.975 202.5043892624791 665 204.02805058802852 C 668.025 205.55171191357795 672.2037790524727 208.5312165280872 674.2861756721614 210.64917195360465 C 676.3685722918502 212.7671273791221 678.9104101077172 216.3 679.9347041518657 218.5 C 680.9589981960142 220.7 682.0677191435416 224.1875 682.3985284797043 226.25 L 683 230 L 661 230 L 639 230 L 639.0325947355461 228.25 C 639.0505218400965 227.2875 638.1023381724141 225.6 636.925519918474 224.5 C 635.3444246748595 223.02211268634457 633.4059605149832 222.5 629.5000571378323 222.5 C 625.5941728066254 222.5 623.6556669746778 223.0221198928104 622.0745372193581 224.5 C 620.8976875396104 225.6 619.9494781599035 227.2875 619.9674052644539 228.25 C 619.9964169084508 229.80762506257435 618.8457503754462 230 609.5 230 L 599 230 L 599.6359767539584 225.75 C 599.9857639686355 223.4125 601.0382104779616 219.7 601.9747467746829 217.5 C 602.9112830714043 215.3 605.212593532123 211.76811098014213 607.0887700207245 209.65135773364915 C 608.9649465093261 207.5346044871562 612.975 204.49311165464928 616 202.89248477252266 C 619.025 201.29185789039605 623.75 199.54067628297736 626.5 199.00097008937 C 629.25 198.46126389576267 632.4 197.82231997708362 633.5 197.5810947145277 C 634.6 197.33986945197177 638.425 197.36992275222528 642 197.6478798262022 Z " class="even" fill="#ffffff"></path><path d="M 159 210 C 159.64761904761906 210 160 222.33333333333334 160 245 C 160 267.6666666666667 159.64761904761906 280 159 280 C 158.35238095238094 280 158 267.6666666666667 158 245 C 158 222.33333333333334 158.35238095238094 210 159 210 Z " class="even" fill="#ffffff"></path><path d="M 198 232.5 C 198.64367816091954 232.82183908045977 199 248.5 199 276.5 C 199 304.83333333333337 198.65134099616859 320 198 320 C 197.34848484848484 320 197 304.66666666666663 197 276 C 197 247 197.3409090909091 232.17045454545453 198 232.5 Z " class="even" fill="#ffffff"></path><path d="M 418.5 522.2214224145775 C 191.89999999999998 522.0682047425952 6.15 522.2932047425952 5.722222222222222 522.7214224145775 C 5.294444444444444 523.1496400865599 4.956944444444445 674.5875 4.972222222222222 859.25 C 4.994376785694587 1127.0322086904723 5.253044643743587 1195.0506089287487 6.25 1195.25 C 6.9375 1195.3875 192.67499999999995 1195.275 419 1195 L 830.5 1194.5 L 830.5 858.5 L 830.5 522.5 L 418.5 522.2214224145775 Z " class="odd" fill="#000000"></path><path d="M 39 576 C 39.55 576 40 576.225 40 576.5 C 40 576.775 39.55 577.225 39 577.5 C 38.45 577.775 38 577.55 38 577 C 38 576.45 38.45 576 39 576 Z " class="even" fill="#ffffff"></path><path d="M 64 628 C 64.55 628 65 628.45 65 629 C 65 629.55 64.55 630 64 630 C 63.45 630 63 629.55 63 629 C 63 628.45 63.45 628 64 628 Z " class="even" fill="#ffffff"></path><path d="M 70 634 C 70.55 634 71 634.45 71 635 C 71 635.55 70.55 636 70 636 C 69.45 636 69 635.55 69 635 C 69 634.45 69.45 634 70 634 Z " class="even" fill="#ffffff"></path><path d="M 63.5 636.0511695906432 C 64.6 635.9924707602339 65.275 636.2167658730159 65 636.5496031746031 C 64.725 636.8824404761905 63.825 636.9304667919799 63 636.656328320802 C 61.95523061648162 636.3091628886428 62.106974155308826 636.12550503411 63.5 636.0511695906432 Z " class="even" fill="#ffffff"></path><path d="M 84.5 720 C 84.775 720 85 721.35 85 723 C 85 724.65 84.6625 725.995136717614 84.25 725.9891927058088 C 83.8375 725.9832486940037 83.6125 724.6332486940037 83.75 722.9891927058088 C 83.8875 721.345136717614 84.225 720 84.5 720 Z " class="even" fill="#ffffff"></path><path d="M 110.25 725.0198322614195 C 110.6625 725.0089245176388 111 726.125 111 727.5 C 111 728.875 110.775 730 110.5 730 C 110.225 730 109.8875 728.8839245176388 109.75 727.5198322614195 C 109.6125 726.1557400052003 109.8375 725.0307400052003 110.25 725.0198322614195 Z " class="even" fill="#ffffff"></path><path d="M 110 732 C 110.55 732 111 732.45 111 733 C 111 733.55 110.55 734 110 734 C 109.45 734 109 733.55 109 733 C 109 732.45 109.45 732 110 732 Z " class="even" fill="#ffffff"></path><path d="M 115.5 738 C 116.325 738 117 738.225 117 738.5 C 117 738.775 116.55 739.225 116 739.5 C 115.45 739.775 114.775 739.55 114.5 739 C 114.225 738.45 114.675 738 115.5 738 Z " class="even" fill="#ffffff"></path><path d="M 559.5 759.9877915892655 C 560.6 760.0012830309017 562.85 760.6985099493144 564.5 761.5371847412935 C 566.15 762.3758595332724 567.95 763.0311262245183 568.5 762.9933329440619 C 569.05 762.9555396636055 570.4762026642084 764.8540788637321 571.6693392537965 767.2123089443432 C 572.8624758433846 769.5705390249545 574.2878426120266 772.625 574.8368209618898 774 L 575.8349634161867 776.5 L 576.6674817080934 773.2268518518518 C 577.125366768642 771.4266203703704 577.8375 769.9641203703703 578.25 769.9768518518518 C 578.6625 769.9895833333334 579.0355263157894 770.5625 579.078947368421 771.25 L 579.1578947368421 772.5 L 579.578947368421 771.25 C 579.8782640812558 770.3614035087719 582.8912280701754 770 590 770 C 597.1432875441211 770 600.1017949074806 769.6429109430152 600.3563358547729 768.75 C 600.552320574898 768.0625 600.5642477255831 769.975 600.3828406340731 773 L 600.0530095586004 778.5 L 601.1590078528175 774.5 C 601.767306914637 772.3 602.4554098153286 770.275 602.68812540991 770 C 602.9208410044913 769.725 603.5293238728759 770.175 604.0403095618756 771 C 604.5512952508752 771.825 604.9762651994986 774.1875 604.984687225483 776.25 C 604.9931092514673 778.3125 605.4483776035421 780.1125 605.996394674538 780.25 C 606.5444117455339 780.3875 607.4305176957463 783.875 607.9655190083433 788 C 608.5005203209404 792.125 608.9908214520574 797.975 609.0550770774923 801 C 609.1596664524491 805.9238157297978 609.2675390838928 806.1857176707988 610.0847814682978 803.5 C 610.5868632578059 801.85 611.6731845231468 800.1625 612.4988287246108 799.75 C 613.6046194174133 799.1975360452211 614.0107965429139 797.2221755930096 614.0409920486985 792.25 C 614.0635376754827 788.5375 614.8995748388365 782.125 615.8988524117071 778 C 616.8981299845777 773.875 617.9690309476471 771.175 618.2786323296391 772 C 618.5882337116311 772.825 619.0666702324878 774.175 619.3418245982094 775 C 619.616978963931 775.825 619.8776315789473 775.0375 619.921052631579 773.25 C 619.9831664180695 770.6929824561404 620.4264507422403 770 622 770 C 623.1 770 625.3394409066933 770.7875 626.9765353482074 771.75 C 629.0667998975059 772.9789331499037 630.0344954762562 774.393257457308 630.2265353482074 776.5 L 630.5 779.5 L 643 780 C 651.7447314290868 780.3497892571635 656.1769447194536 780.9506322285096 657.7533165959717 782 C 659.3228160683379 783.0447929122602 660.0056266999478 784.4862820234364 660.0033165959717 786.75 C 660.0014924681873 788.5375 659.55 790 659 790 C 658.45 790 658 792.25 658 795 C 658 797.75 658.45 800 659 800 C 659.55 800 659.9903808182632 799.4375 659.9786240405851 798.75 C 659.9668672629069 798.0625 660.7245098315262 795.925 661.6622741930726 794 C 662.6000385546188 792.075 663.9056847103896 790.05 664.5637100947854 789.5 C 665.2217354791812 788.95 666.0390929105619 787.2625 666.380059942298 785.75 C 666.7210269740341 784.2375 667.45 783 668 783 C 668.55 783 669 783.45 669 784 C 669 784.55 670.4625 785.2779186887112 672.25 785.6175970860251 C 674.0375 785.9572754833389 675.95 786.5066595560055 676.5 786.8384505808398 C 677.05 787.170241605674 678.9123038675588 787.4548229169628 680.6384530390194 787.4708534948147 C 682.36460221048 787.4868840726666 684.61460221048 788.2582132214476 685.6384530390194 789.1849182698836 C 687.0166549658278 790.4323526106456 688.5385878934102 790.7181300518985 691.5 790.2855567158591 C 694.7308254101034 789.8136301904359 695.9326607068168 790.1145854649151 697.75 791.8506384459755 C 698.9875 793.0327873006889 700 795.125 700 796.5 C 700 797.875 700.675 799.225 701.5 799.5 C 702.325 799.775 704.125 800 705.5 800 C 706.875 800 708 800.45 708 801 C 708 801.55 707.2583040141635 803.4625 706.3517866981413 805.25 C 705.445269382119 807.0375 703.7566393303657 809.85 702.5992754720229 811.5 C 701.4419116136801 813.15 700.0461075995165 815.233783029749 699.4974887738816 816.1306289549977 C 698.9488699482467 817.0274748802466 697.0375 819.8399748802466 695.25 822.3806289549977 L 692 827 L 695.75 826.6178947673465 C 698.2381015849057 826.3643703313555 699.5841265610063 825.6913578433052 699.75 824.6178947673465 C 699.8875 823.7280526453059 700.3375 823.016247171971 700.75 823.0361048266022 C 701.1625 823.0559624812336 703.75 820.9950151101395 706.5 818.4562217797268 C 709.25 815.9174284493139 712.4 813.3568551348569 713.5 812.7660588587112 C 714.6 812.1752625825654 716.7375 811.3112099536595 718.25 810.8459419055868 C 720.7129060174433 810.088314483886 721.4958896062344 810.5203693299283 725.75 814.9844850266745 C 729.1799751684644 818.5837818412169 731.2642249024681 819.973281663886 733.25 819.9844850266745 C 734.7625 819.9930182620036 736.9 820.9 738 822 C 739.1111111111111 823.1111111111111 740 825.3333333333334 740 827 C 740 829.6666666666666 740.3333333333334 830 743 830 C 744.8276411427756 830 746.8792691429184 830.9083875234742 748.25 832.3245122887324 C 749.4875 833.6029940475354 751.2875 834.9529940475353 752.25 835.3245122887324 C 753.2125 835.6960305299297 754.3375 836.6864151884462 754.75 837.525367085436 C 755.2170442181289 838.4752522558052 754.8845848142254 839.5127567893327 753.8687861535157 840.275367085436 C 752.9716185379492 840.9489151884462 751.9591185379492 843.4125 751.6187861535157 845.75 L 751 850 L 753.5 850 C 754.875 850 756.9 850.9 758 852 C 759.6 853.6 760.05 855.55 760.25 861.75 L 760.5 869.5 L 763.25 869.75 C 764.7625 869.8875 766.9 870.9 768 872 C 769.1434937636772 873.1434937636772 770.1066275298203 875.6059491931054 770.2489824949275 877.75 L 770.4979649898551 881.5 L 762.4989824949275 884.3787038070741 C 758.0995421227174 885.9619909009648 751.35 888.0308438991221 747.5 888.9761549140902 L 740.5 890.6949022140323 L 739.9634058861369 893.5974511070161 L 739.4268117722738 896.5 L 739.9634058861369 898.8646203402177 L 740.5 901.2292406804354 L 760.25 900.6146203402177 L 780 900 L 780 903 C 780 904.7777777777778 779.3888888888889 906.2037037037037 778.5 906.5 C 777.675 906.775 777.0175296353217 908.0125 777.0389547451593 909.25 C 777.060379854997 910.4875 777.847879854997 912.0288830345777 778.7889547451593 912.6752956323948 C 780.3216745817329 913.7281017604112 780.1873395059025 913.9777661628118 777.5 915.0708435872592 L 774.5 916.2910959097289 L 779 917.5640246800571 C 781.475 918.2641355037375 786.2 919.1403719884986 789.5 919.5112168684151 L 795.5 920.185480286445 L 794.6480208528087 929.8427401432225 C 794.1794323218534 935.1542330644502 793.4000023325309 939.95 792.9159542098697 940.5 C 792.3949731933984 941.0919650250555 792.6276248515953 942.316069949889 793.4861299851902 943.5 C 794.2837747842779 944.6 794.9507047736004 945.8375 794.9681966281292 946.25 C 794.9856884826581 946.6625 791.6172165467298 947.5625 787.4827034371772 948.25 C 782.7807313799728 949.0318588800358 779.9718846601876 949.9681411199642 779.9827034371772 950.75 C 779.9922165467298 951.4375 779.4375 951.9799635920185 778.75 951.9554746489301 C 778.0625 951.9309857058417 776.825 952.6441839753098 776 953.5403596921926 C 774.7729046255323 954.8733209975227 774.7274205212768 955.5181992399382 775.75 957.0848850432626 C 776.4375 958.1381982694681 777 959.225 777 959.5 C 777 959.775 775.875 960 774.5 960 C 772.7222222222222 960 772.1444444444444 960.4333333333333 772.5 961.5 C 772.8935009714967 962.6805029144899 772.0947582577215 962.9907237076688 768.75 962.9564489345044 C 766.4125 962.9324958484818 762.7 962.4989944675291 760.5 961.9931125323872 C 758.3 961.4872305972453 753.35 960.4160850558347 749.5 959.6127891070304 C 745.65 958.809493158226 742.05 958.0647050654944 741.5 957.9577044565158 C 740.95 957.8507038475371 739.825 957.8089473684207 739 957.8649122807016 C 737.7894736842105 957.9470298553401 737.7444444444444 958.2111111111111 738.7666666666667 959.2333333333333 C 739.4633333333334 959.9300000000001 740.0258333333334 962.6375 740.0166666666667 965.25 C 740.0074999999999 967.8625 740.45 970 741 970 C 741.55 970 741.775 970.45 741.5 971 C 741.225 971.55 740.2125 971.7331108562952 739.25 971.4069130139892 C 738.1304583488393 971.0274926805032 738.4006547840561 971.559874822654 740 972.8846771684005 C 741.375 974.0236452956325 743.2875 974.9655344393374 744.25 974.9777641544113 C 745.2125 974.989993869485 747.35 976.125 749 977.5 C 750.65 978.875 752.5625 980.0328897174677 753.25 980.0730882610393 C 753.9375 980.1132868046109 755.85 980.9901043016139 757.5 982.0215715877125 C 759.15 983.0530388738111 763.0740062265447 985.1576491563435 766.2200138367662 986.6984833266732 C 769.3660214469876 988.239317497003 771.7285214469875 989.8375 771.4700138367662 990.25 C 771.2115062265448 990.6625 771.6950364079814 991.5625 772.5445253510699 992.25 C 773.3940142941583 992.9375 774.0690142941583 994.0625 774.0445253510699 994.75 C 774.0200364079815 995.4375 773.1 996.225 772 996.5 C 770.9 996.775 770 997.675 770 998.5 C 770 999.5877192982456 768.6944444444445 1000.0687134502924 765.25 1000.25 L 760.5 1000.5 L 760.25 1006.25 L 760 1012 L 756.9768518518518 1012.75 C 755.3141203703703 1013.1625 753.9641203703703 1013.8375 753.9768518518518 1014.25 C 753.9895833333334 1014.6625 754.7875 1015.403409021547 755.75 1015.8964644923266 C 756.7125 1016.3895199631062 758.5125 1018.6395199631062 759.75 1020.8964644923266 C 760.9875 1023.153409021547 762 1025.225 762 1025.5 C 762 1025.775 760.425 1026.675 758.5 1027.5 C 756.575 1028.325 755 1029.45 755 1030 C 755 1030.55 754.1 1031 753 1031 C 751.9 1031 748.8625 1030.2769962188077 746.25 1029.3933249306835 C 742.6640143156027 1028.1803746574105 741.0711526205674 1028.0578468347155 739.75 1028.8933249306835 C 738.7875 1029.5019962188076 736.875 1030 735.5 1030 C 734.125 1030 732.325 1030.225 731.5 1030.5 C 730.4629629629629 1030.8456790123457 730 1032.388888888889 730 1035.5 C 730 1038.8333333333333 729.6111111111111 1040 728.5 1040 C 727.675 1040 726.6625 1040.7019506265328 726.25 1041.5598902811844 C 725.6535220231139 1042.8004772132979 724.7016249862145 1042.9539992364116 721.5997044710963 1042.3098902811844 C 719.4545419301993 1041.864450626533 717.5578918065869 1041.05 717.3849264186243 1040.5 C 717.2119610306618 1039.95 715.8170940186685 1038.9432928491265 714.285221947528 1038.2628729980588 C 712.7533498763876 1037.5824531469912 709.925 1034.9847647820898 708 1032.4902321871668 C 706.075 1029.9956995922437 703.9375 1027.9649067431174 703.25 1027.977359189108 C 702.5625 1027.9898116350985 701.55 1027.1 701 1026 C 700.45 1024.9 699.325 1024 698.5 1024 C 697.675 1024 696.4375 1022.795728897655 695.75 1021.3238419947888 C 695.0625 1019.8519550919226 693.9375 1018.5019550919226 693.25 1018.3238419947888 C 692.5625 1018.145728897655 692 1018.45 692 1019 C 692 1019.55 693.35 1022.025 695 1024.5 C 696.65 1026.975 698 1029.225 698 1029.5 C 698 1029.775 697.1 1030 696 1030 C 694.9 1030 693.775 1029.325 693.5 1028.5 C 693.225 1027.675 692.1 1027 691 1027 C 689.9 1027 688.710101057505 1027.5625 688.3557801277889 1028.25 C 687.9502839336348 1029.036796968794 687.2091590837053 1028.2956721188646 686.3557801277889 1026.25 C 685.610101057505 1024.4625 684.55 1023.225 684 1023.5 C 683.45 1023.775 683 1024.9 683 1026 C 683 1027.1 683.5625 1028.5625 684.25 1029.25 C 684.9375 1029.9375 687.525 1033.8808843738907 690 1038.013076386424 C 692.475 1042.1452683989573 695.8134227781928 1048.2202683989572 697.418717284873 1051.513076386424 C 699.0240117915531 1054.8058843738909 700.9365117915531 1058.7375 701.668717284873 1060.25 C 702.4009227781928 1061.7625 702.7495647132238 1063.5625 702.4434771404973 1064.25 C 702.1373895677708 1064.9375 702.5873895677709 1066.0625 703.4434771404973 1066.75 C 704.2995647132237 1067.4375 704.775 1068.45 704.5 1069 C 704.2192819625037 1069.5614360749926 703.3418317667987 1069.232513131237 702.4992649972515 1068.25 L 700.9985299945031 1066.5 L 699.9992649972515 1068.25 C 699.2054775784935 1069.6401497467111 697.0979343754735 1070.1236841001748 689.75 1070.601492352243 C 684.4780675701386 1070.9443060860922 678.9947852437314 1071.9096806187883 677 1072.8462290918778 C 675.075 1073.7500135049431 671.6590663304111 1074.4918419464339 669.4090362898023 1074.4947367396348 C 667.1590062491937 1074.4976315328356 664.5715062491937 1073.9375 663.6590362898023 1073.25 C 662.746566330411 1072.5625 661.55 1072.225 661 1072.5 C 660.45 1072.775 660.0004253520294 1074.4625 660.000945226732 1076.25 L 660.0018904534641 1079.5 L 640.000945226732 1079.75 L 620 1080 L 620.0445253510699 1078.25 C 620.0814666286193 1076.7980802698187 619.825969254489 1076.712914478442 618.5445253510699 1077.75 C 617.2488892090921 1078.7985714438746 616.9268641589628 1078.6374285989743 616.5461427959614 1076.75 C 616.2965213337401 1075.5125 615.6215213337401 1072.1375 615.0461427959614 1069.25 C 614.4707642581826 1066.3625 614 1060.85 614 1057 C 614 1050.9945182500944 613.7513704374765 1050.0020443876213 612.25 1050.0143895935023 C 610.979792161864 1050.0248340360477 610.1950437884393 1048.722541025274 609.3876988566092 1045.2643895935023 L 608.2753977132185 1040.5 L 608.1376988566092 1045.25 C 608.0364001545964 1048.7443560637291 607.6034808622303 1050 606.5 1050 C 605.3172043010753 1050 604.9471326164875 1048.361111111111 604.75 1042.25 L 604.5 1034.5 L 602.6828830470538 1044.5 C 601.6834687229334 1050 600.4856346910608 1057.2 600.0210296428922 1060.5 C 599.5564245947237 1063.8 598.7991272235495 1069.3611375466153 598.3381465958385 1072.858083436923 C 597.8771659681273 1076.3550293272306 597.1625 1079.3925293272305 596.75 1079.608083436923 C 596.3375 1079.8236375466154 596.0076424563522 1080.7875 596.0169832363382 1081.75 C 596.0263240163242 1082.7125 595.3981273069684 1084.4 594.6209905488807 1085.5 L 593.2080146250851 1087.5 L 589.8540073125425 1085.8062900593964 C 588.0093032906441 1084.8747495920645 585.0366572812562 1083.5247495920646 583.2481272916805 1082.8062900593964 C 581.4595973021048 1082.0878305267283 579.9970973021049 1081.1625 579.9981272916805 1080.75 C 579.9991572812562 1080.3375 579.1 1080 578 1080 C 576.9 1080 574.6446155082322 1079.2125 572.988034462738 1078.25 C 571.3314534172439 1077.2875 569.981453417244 1075.9375 569.988034462738 1075.25 C 569.9960267594814 1074.4150712616984 568.3397149532063 1074 565 1074 C 560.8333333333334 1074 559.9166666666666 1073.6666666666667 559.5 1072 C 559.225 1070.9 558.325 1070 557.5 1070 C 556.675 1070 555.5125315148309 1071.0125 554.9167366996243 1072.25 C 554.0747696249593 1073.998813900867 553.5735835258263 1074.229658124546 552.6667366996243 1073.2863406011784 C 551.9171802306789 1072.506639188018 551.8178165999269 1071.4339544148042 552.3888443497938 1070.2863406011784 C 552.8777087421804 1069.3038532705302 553.3277087421803 1067.6735957962271 553.3888443497938 1066.663546213838 C 553.4499799574072 1065.653496631449 553.1625 1064.6409966314488 552.75 1064.413546213838 C 552.3375 1064.1860957962272 551.5905847202326 1065.4625 551.0901882671836 1067.25 L 550.1803765343673 1070.5 L 550.0901882671836 1065.75 C 550.0124961683365 1061.6581432535713 549.6882479325188 1060.938161706009 547.75 1060.5536961066407 C 546.5125 1060.308228965293 542.125 1059.9093350405526 538 1059.6672651627728 C 533.6895387889897 1059.4143117522217 529.0115485651381 1058.4824624358064 527 1057.4760800618924 C 524.5515313478347 1056.251105563476 522.373359270177 1055.9165476290468 519.75 1056.36251100576 C 517.5841119779241 1056.7307056129146 515.7887850696101 1056.5775701392201 515.5 1056 C 515.225 1055.45 515.3738606844496 1054.2125 515.8308015209991 1053.25 C 516.2877423575485 1052.2875 517.4762672507021 1049.925 518.4719679502293 1048 C 519.4676686497564 1046.075 521.2313079653069 1042.8026344416678 522.3911664292302 1040.7280765370394 C 523.5510248931536 1038.653518632411 524.8375 1036.966018632411 525.25 1036.9780765370394 C 525.6625 1036.9901344416678 526.7357865467179 1035.5375 527.6350812149287 1033.75 C 528.5343758831394 1031.9625 530.8632782464005 1028.025 532.8104197999531 1025 C 534.7575613535058 1021.975 537.186401464114 1018.6 538.2078422679715 1017.5 C 539.8624056506416 1015.7181838496525 539.8978235893181 1015.3636350939671 538.5325036829471 1014.25 C 537.6896266573262 1013.5625 537.225 1012.325 537.5 1011.5 C 537.7962962962963 1010.6111111111111 537.3888888888889 1010 536.5 1010 C 535.6111111111111 1010 535.2037037037037 1010.6111111111111 535.5 1011.5 C 535.775 1012.325 535.325 1014.35 534.5 1016 C 533.675 1017.65 532.55 1018.775 532 1018.5 C 531.45 1018.225 531.280975257288 1017.2125 531.62438946064 1016.25 L 532.24877892128 1014.5 L 531.62438946064 1012.75 C 531.0872467944879 1011.2445298967688 530.4061416792758 1011.5402334938065 526.75 1014.86622914684 C 524.4125 1016.992655177602 519.8 1021.2616621818411 516.5 1024.352911378482 C 513.2 1027.4441605751233 509.9375 1029.9793574590453 509.25 1029.9866822316421 C 508.5625 1029.994007004239 507.1 1030.9 506 1032 C 504.9 1033.1 503.325 1034 502.5 1034 C 501.5 1034 501.1666666666667 1033.3333333333333 501.5 1032 C 501.9166666666667 1030.3333333333333 501.5 1030 499 1030 C 497.35 1030 494.6446155082321 1029.2125 492.988034462738 1028.25 C 490.6096031823033 1026.8680935043021 489.97858574635706 1025.816397777725 489.988034462738 1023.25 L 490 1020 L 487 1020 C 484.8050759743303 1020 484.00313323959557 1019.5303723483073 484.011675567383 1018.25 C 484.0221645906004 1016.6778459428629 483.31078081914893 1016.5762196897983 477.011675567383 1017.25 L 470 1018 L 469.8815789473683 1015.75 L 469.7631578947366 1013.5 L 469.8815789473683 1012.75 C 469.9467105263157 1012.3375 469.3163669995195 1011.4375 468.4808155544879 1010.75 C 467.14350654457854 1009.6496489087781 467.2332958898454 1009.2325672461683 469.2308155544879 1007.2661651861063 C 470.47886699951954 1006.0375560384647 472.76169728193923 1004.0125560384647 474.3037717376427 1002.7661651861063 L 477.1075434752854 1000.5 L 473.5222343145515 998.5 C 470.6343119582629 996.8890246409336 469.9421279959415 995.9164630385995 469.96367329044654 993.5 C 469.98486839015516 991.1228138801648 468.7457879447741 989.3062733963508 463.99521071353774 984.75 C 459.6966831677853 980.6272869596953 458.42450964165965 978.8584967861135 459.5 978.5 C 460.325 978.225 461 977.55 461 977 C 461 976.45 459.7625 975.8384902850968 458.25 975.6410895224374 L 455.5 975.2821790448746 L 457.75 974.6410895224374 C 458.9875 974.2884902850968 460 973.55 460 973 C 460 972.45 460.675 972 461.5 972 C 462.325 972 466.2625 970.4578182675524 470.25 968.5729294834497 C 474.2375 966.688040699347 479.6375 964.2130406993471 482.25 963.0729294834497 C 484.8625 961.9328182675523 487.5625 961.0039143381479 488.25 961.0086985292176 C 488.9375 961.0134827202871 491.3 960.1094067099657 493.5 958.9996407285032 C 495.7 957.8898747470408 500.31364792210894 955.973460408893 503.7525509380199 954.7409421992858 C 507.1914539539308 953.5084239896786 510.0039539539308 952.1625 510.0025509380199 951.75 C 510.00114792210894 951.3375 509.325 951 508.5 951 C 507.675 951 505.425 951.675 503.5 952.5 L 500 954 L 500 952.5 C 500 951.675 500.7875 950.7980472374142 501.75 950.5512160831427 C 502.7125 950.3043849288712 501.7 950.2775780503945 499.5 950.4916452420836 C 497.3 950.7057124337726 492.575 951.3721785063157 489 951.9726809588458 C 485.425 952.573183411376 479.125 953.7239105649967 475 954.5298524113362 C 470.875 955.3357942576755 466.0375 955.9962809477183 464.25 955.9976006114312 C 462.4625 955.998920275144 460.2125 955.2960714285715 459.25 954.4357142857143 C 457.8466034708767 953.1812496331511 457.7508748932061 952.6365870360593 458.76666666666733 951.6857142857143 C 459.4633333333344 951.0335714285715 460.03545251507103 949.825 460.03804262608213 949 C 460.04063273709323 948.175 459.35813273709294 946.0375 458.5213759594148 944.25 C 457.68461918173665 942.4625 456.55 940.775 456 940.5 C 455.45 940.225 455 937.75 455 935 C 455 932.25 454.55 929.775 454 929.5 C 453.45 929.225 453 926.975 453 924.5 C 453 921.6041521400589 452.554402183317 919.9749448323487 451.75 919.9297147373896 C 451.0625 919.891057842954 451.4 919.4672814278655 452.5 918.9879893705263 L 454.5 918.1165492662733 L 452 917.4220852462156 L 449.5 916.7276212261579 L 452 915.4909873965005 L 454.5 914.254353566843 L 451.76983226141965 913.8771767834214 L 449.03966452283936 913.5 L 448.8589536120022 927 L 448.6782427011651 940.5 L 447.88403186001557 924 C 447.44721589738333 914.925 447.31680185802895 898.725 447.5942228836726 888 C 447.8716439093162 877.275 448.3139341800713 868.275 448.5770901520174 868 C 448.84024612396337 867.725 449.03055555555557 874.925 449 884 C 448.96944444444443 893.075 449.1565295051404 900.275 449.4157445793243 900 C 449.67495965350827 899.725 449.9124596535082 892.6375 449.9435223571021 884.25 L 450 869 L 452.25 869.6042170397641 C 453.4875 869.9365364116344 456.525 870.8009291135546 459 871.525089710698 C 461.475 872.2492503078414 468.675 874.2688324731976 475 876.0130500781563 C 481.325 877.757267683115 489.2 879.8805352903406 492.5 880.7314225386579 C 495.8 881.582309786975 500.525 883.0843301885384 503 884.0692456532432 C 506.22000873017726 885.3506340956012 508.69705832113976 885.6665799921959 511.7084368636944 885.1800005218079 C 515.4118689821488 884.5815988219382 515.744897303421 884.3200027367893 514.4837150706949 883 C 513.6954778095132 882.175 513.0391812208508 881.1625 513.0252782070005 880.75 C 513.0113751931502 880.3375 513.7875 880.0015615819967 514.75 880.0034701822149 C 515.7244701975907 880.0054025188713 514.7273604516358 879.0411869450897 512.5 877.8276966028172 C 510.3 876.6291125339302 506.7 874.6321848092617 504.5 873.3900794368872 C 502.3 872.1479740645125 498.475 870.0430161616056 496 868.712395208205 C 493.525 867.3817742548042 487.9 864.3502143999926 483.5 861.9755955308458 C 479.1 859.6009766616991 474.15 856.6225814188097 472.5 855.3569394355361 C 470.85 854.0912974522626 469.05 853.0632598577274 468.5 853.0724114476802 C 467.95 853.0815630376329 466.9375 852.3940142941583 466.25 851.5445253510699 C 465.22023216659784 850.2721233315451 465.308325033237 849.916120425876 466.75 849.5239139255873 C 468.06655297783544 849.1657467604592 468.68709297963505 847.4938796749673 469.2553696244728 842.7739139255873 C 469.67082291793287 839.3232612665142 470.00832291793284 834.8125 470.0053696244728 832.75 C 470.0008988318094 829.6277197413683 470.6892123038657 828.3722802586317 474.1173567902491 825.25 L 478.23471358049824 821.5 L 475.11625491630014 818.5 C 473.10714399111924 816.5672077379957 471.99818822823687 814.5217262401707 471.998898126051 812.75 C 471.99950415672294 811.2375 472.45 810 473 810 C 473.55 810 474 809.55 474 809 C 474 808.45 473.1 807.775 472 807.5 C 470.9 807.225 470 806.325 470 805.5 C 470 804.675 470.45 804 471 804 C 471.55 804 472.225 804.45 472.5 805 C 472.775 805.55 473.9 806 475 806 C 476.1 806 477.9 806.9 479 808 C 480.1 809.1 483.7 811.575 487 813.5 C 490.3 815.425 493.45 817 494 817 C 494.55555555555554 817 494.3333333333333 815.6666666666666 493.5 814 C 492.675 812.35 492.23032102759856 810.6625 492.5118245057746 810.25 C 492.79332798395063 809.8375 493.5808279839506 810.3550419320495 494.2618245057746 811.4000931823323 C 494.9428210275986 812.445144432615 496.0625 813.007644432615 496.75 812.6500931823323 C 497.4375 812.2925419320495 497.775 811.1 497.5 810 C 497.1666666666667 808.6666666666666 497.5 808 498.5 808 C 499.325 808 500 808.45 500 809 C 500 809.55 502.025 810 504.5 810 C 507.6111111111111 810 509.15432098765433 809.5370370370371 509.5 808.5 C 509.775 807.675 509.9971092037871 806.2125 509.99357600841574 805.25 C 509.99004281304445 804.2875 511.22754281304447 802.72447421834 512.7435760084157 801.776609374089 C 514.2596092037871 800.828744529838 514.9375 800.041244529838 514.25 800.026609374089 C 513.5625 800.01197421834 513 799.55 513 799 C 513 798.45 513.675 798 514.5 798 C 515.325 798 517.1247105190303 798.5625 518.4993567089562 799.25 C 519.874002898882 799.9375 521.336502898882 801.2635775866827 521.7493567089562 802.1968390815172 C 522.1622105190303 803.1301005763517 524.75 806.4419618773242 527.5 809.556530861456 C 530.25 812.671099845588 534.075 816.9393749119577 536 819.0415865644998 C 537.925 821.143798217042 540.625 824.6823330681891 542 826.9049973448268 C 543.375 829.1276616214644 544.95 830.9650903040327 545.5 830.9881721949785 C 546.1310541329389 831.0146556907555 546.2232905997041 829.3643229882049 545.75 826.5150696347126 L 545 822 L 547.5 822 C 548.875 822 550 822.225 550 822.5 C 550 822.775 549.4876737196031 823.7875 548.8614971546735 824.75 C 548.0240487094736 826.0372473574536 548.0160077381839 827.0288601629103 548.8310884687728 828.5 L 549.9391826281985 830.5 L 549.9695913140993 827.75 C 549.9863160913446 826.2375 550.45 825.225 551 825.5 C 551.55 825.775 551.9945795873363 824.9875 551.987954638525 823.75 C 551.9813296897137 822.5125 550.8563296897137 819.5875 549.487954638525 817.25 C 548.1195795873363 814.9125 547 812.325 547 811.5 C 547 810.675 546.6482337360651 809.8875 546.2182971912558 809.75 C 545.7883606464466 809.6125 544.1464749706719 806.8 542.569662356201 803.5 C 540.9928497417301 800.2 538.6639737179011 795.25 537.3943823032475 792.5 C 536.1247908885941 789.75 534.3916765643688 785.8125 533.5430171383025 783.75 L 532 780 L 535.5 780.5 C 537.7126745403956 780.8160963629136 539.2758554556295 780.5396409477981 539.75 779.7483688210426 C 540.1625 779.059971672616 541.625 777.9757765559037 543 777.3390463394596 C 544.375 776.7023161230156 546.4 775.903841578692 547.5 775.564658463185 C 548.6 775.2254753476781 549.725 775.4068535891467 550 775.9677212220045 C 550.3326425367705 776.6461518844999 551.3367873161475 776.6021340051199 553 775.8362126578488 C 554.375 775.2030153147056 556.2744370114702 773.068332189949 557.2209711366005 771.0924723806123 C 558.4586109514591 768.5089387248366 558.739458963063 766.4416610165847 558.2209711366005 763.7316308476907 C 557.5807577642804 760.3853660658261 557.724024957951 759.9660093496042 559.5 759.9877915892655 Z " class="even" fill="#ffffff"></path><path d="M 559 777.5 C 558.45 777.225 558 777.675 558 778.5 C 558 779.325 558.45 780 559 780 C 559.55 780 560 779.55 560 779 C 560 778.45 559.55 777.775 559 777.5 Z " class="odd" fill="#000000"></path><path d="M 155.74758999519526 803.5 C 155.91969927031172 810.65 155.91919965283455 821.9 155.74647973413482 828.5 C 155.5737598154351 835.1 155.43294313579432 829.25 155.43355377937758 815.5 C 155.4341644229608 801.75 155.57548072007876 796.35 155.74758999519526 803.5 Z " class="even" fill="#ffffff"></path><path d="M 711 794 C 711.55 794 712 794.45 712 795 C 712 795.55 711.55 796.225 711 796.5 C 710.45 796.775 710 796.325 710 795.5 C 710 794.675 710.45 794 711 794 Z " class="even" fill="#ffffff"></path><path d="M 656.5 802 C 656.225 802 655.542548311039 803.4625 654.983440691198 805.25 C 654.4243330713568 807.0375 653.9668330713567 808.95 653.9667740245313 809.5 L 653.9666666666667 810.5 L 654.8779804298279 809.5 C 655.3792029995666 808.95 656.0617029995666 807.0375 656.3946470964945 805.25 C 656.7275911934225 803.4625 656.775 802 656.5 802 Z " class="odd" fill="#000000"></path><path d="M 546.5 818 C 547.325 818 548 818.45 548 819 C 548 819.55 547.325 820 546.5 820 C 545.675 820 545 819.55 545 819 C 545 818.45 545.675 818 546.5 818 Z " class="even" fill="#ffffff"></path><path d="M 620 829.1385974569667 C 614.225 829.2117273841146 606.35 829.5957273821156 602.5 829.9919307858577 C 598.65 830.3881341895998 591.225 832.1154841436506 586 833.830486239304 C 580.1755908069691 835.742232454039 574.1785742271774 838.5705154588586 570.5 841.1405188182408 C 567.2 843.4460346410027 563.7912294192441 846.0450834707557 562.9249542649869 846.9161828843585 C 562.0586791107297 847.7872822979613 560.2586791107298 850.297926811458 558.9249542649869 852.495392914351 C 557.5912294192441 854.692859017244 555.6623470002405 858.292859017244 554.6385488894234 860.495392914351 C 553.6147507786064 862.6979268114579 552.2492768156958 868.325 551.6041623051779 873 L 550.4312268315086 881.5 L 546.7893424108478 883.5 C 544.7863059794843 884.6 541.3142799423948 887.1875 539.0737289950935 889.25 C 535.9011644335995 892.1704488369087 534.778786356509 894.106068217455 534 898 C 533.45 900.75 533 904.8 533 907 C 533 909.2 533.8559069915515 912.6875 534.9020155367812 914.75 C 535.9481240820108 916.8125 538.5356240820108 920.2041684094901 540.6520155367812 922.287040909978 C 542.7684069915515 924.3699134104659 547.425 927.6052579808221 551 929.4766955107696 C 554.575 931.3481330407171 560.425 933.5854624037171 564 934.4485385396586 C 567.575 935.3116146755999 570.6227136212459 936.1262701052436 570.7726969361021 936.2588839388668 C 570.9226802509583 936.3914977724901 570.1351802509582 938.8625 569.0226969361021 941.75 C 567.8005117919773 944.9222359846059 567 949.3745874461647 567 953 C 567 956.3 567.675 960.575 568.5 962.5 C 569.325 964.425 571.125 966.675 572.5 967.5 C 573.875 968.325 575.0027723337087 969.5625 575.0061607415748 970.25 C 575.0095491494409 970.9375 575.746457515774 972.85 576.6437348889815 974.5 C 577.5410122621889 976.15 578.8628505533617 981.55 579.5811533138098 986.5 C 580.2994560742578 991.45 581.5908043770906 997.075 582.450816208994 999 C 583.4033676954341 1001.1321353304397 585.3795103847787 1003.1839323347801 587.507237042591 1004.25 C 589.4282566691659 1005.2125 592.35 1006 594 1006 C 595.65 1006 598.35 1005.325 600 1004.5 C 602.1516506931482 1003.4241746534259 603.254425283613 1001.9395633664353 603.8997188359494 999.25 C 604.3945641957217 997.1875 605.0695641957217 994.2625 605.3997188359494 992.75 C 605.8622488946339 990.6310635123058 606.5163246918866 990.0573694102096 608.25 990.25 C 609.4875 990.3875 610.275 990.95 610 991.5 C 609.725 992.05 609.1625 992.3875 608.75 992.25 C 608.3375 992.1125 607.7526516763472 994.1375 607.4503370585494 996.75 C 607.1480224407516 999.3625 606.5276691786786 1003.3 606.0717742539427 1005.5 C 605.615879329207 1007.7 605.1859935665425 1011.975 605.1164725591327 1015 C 605.0109412774848 1019.5918800500538 605.1972813497813 1020.2323307948168 606.2450353637392 1018.8788698523856 C 606.9583089669226 1017.9574818640649 608.7949154520198 1017.3100241380549 610.5 1017.3788698523856 L 613.5 1017.5 L 613.3744450577726 1012.5 C 613.3053898395475 1009.75 613.1242554425003 1003.675 612.9719241754456 999 L 612.694958235346 990.5 L 618.097479117673 990.1968427486448 L 623.5 989.8936854972897 L 625 996.4829918161039 C 626.3338443866545 1002.3423979796357 626.8600038289152 1003.2344495012799 629.75 1004.5361490674591 C 631.5375 1005.3412670803566 634.125 1006 635.5 1006 C 636.875 1006 639.575 1005.325 641.5 1004.5 C 643.8794039437149 1003.4802554526937 645.6909551114351 1001.6392762173681 647.1580862046221 998.75 C 648.5891116025708 995.9318280807057 649.467230616104 991.9732445634605 649.7645484313414 987 C 650.1090687877995 981.2371970263952 650.8252372479595 978.4576817841629 652.8564622267194 975 L 655.5 970.5 L 656 952 L 656.5 933.5 L 662.1040435981804 930.5 C 665.1862675771795 928.85 669.2362675771795 926.3202088125568 671.1040435981804 924.8782418056817 C 672.9718196191811 923.4362747988067 675.8041347150486 920.9612747988067 677.3980771445523 919.3782418056817 C 678.992019574056 917.7952088125568 681.890800125613 914.025 683.8398117035678 911 C 686.2814612416377 907.2103920078237 687.773954476797 903.3231374445882 688.6391283256219 898.5 C 689.3297408897969 894.65 689.9184603382399 888.9125 689.9473937666064 885.75 C 689.9763271949729 882.5875 689.3613299578459 876.7375 688.5807332396574 872.75 C 687.800136521469 868.7625 686.337636521469 863.6853404933108 685.3307332396574 861.4674233184685 C 684.3238299578459 859.249506143626 682.0806181265299 855.1995061436261 680.3458180589554 852.4674233184685 C 678.6110179913809 849.7353404933108 675.4683938868479 846.15 673.3622089377712 844.5 C 671.2560239886946 842.85 667.7254058621646 840.3501222704622 665.5163908788159 838.9447161565826 C 663.3073758954671 837.5393100427029 658.575 835.2242852150989 655 833.8002165396847 C 651.425 832.3761478642706 644.45 830.7147932332473 639.5 830.108317359633 C 634.55 829.5018414860186 625.775 829.0654675298189 620 829.1385974569667 Z " class="odd" fill="#000000"></path><path d="M 552.5496031746031 831 C 552.2167658730159 830.725 551.9924707602339 831.4 552.0511695906432 832.5 C 552.12550503411 833.8930258446911 552.3091628886428 834.0447693835184 552.656328320802 833 C 552.9304667919799 832.175 552.8824404761905 831.275 552.5496031746031 831 Z " class="odd" fill="#000000"></path><path d="M 556.34930252929 831 C 556.1266305826249 830.725 555.973127758017 831.4 556.0081851412723 832.5 C 556.0432425245276 833.6 557.2157622952574 835.85 558.6137846317829 837.5 L 561.1556434254657 840.5 L 558.9549020198006 836 C 557.7444942466848 833.525 556.571974475955 831.275 556.34930252929 831 Z " class="odd" fill="#000000"></path><path d="M 630.5 833.7648754783529 C 635.45 834.0342474355601 642.65 835.0401018640464 646.5 836.0001075416556 C 650.35 836.9601132192647 656.1845251039614 839.0403186177779 659.4656113421365 840.622786205018 C 662.7466975803117 842.2052537922581 667.987740057237 845.975 671.1123724019708 849 C 674.7376609772434 852.5096922550528 677.9125006492687 856.8521818803921 679.8856981554725 861 C 681.5863949751647 864.575 683.483833508086 869.975 684.1022282286312 873 C 684.7206229491763 876.025 685.026501399219 883 684.781958117615 888.5 C 684.4477825907933 896.0159104166081 683.7365154230247 899.97513597668 681.918666984622 904.4383364695962 C 680.2719033479693 908.4814877684374 677.5851352760578 912.3210657419968 673.5 916.4691956489999 C 670.2 919.8200831393941 664.8 923.9894440024709 661.5 925.734442011393 C 658.2 927.479440020315 652.125 929.781880926126 648 930.8509773576396 C 643.875 931.9200737891533 635.55 933.1239242872751 629.5 933.5262006867991 C 623.45 933.9284770863231 617.4875 933.9746495497805 616.25 933.6288061611488 C 614.632051509691 933.1766390593142 613.700873056146 931.8061249261393 612.9351570032627 928.75 C 612.3494933550571 926.4125 612.0119933550571 923.8551887799348 612.1851570032627 923.0670861776329 C 612.3901905393321 922.1339373036628 614.9414271006195 921.2345270333916 619.5 920.4883190744492 C 623.35 919.8580997700002 629.425 917.9761967253046 633 916.3063123084589 C 636.575 914.6364278916134 641.8556627971393 911.521873088046 644.7348062158652 909.3850794116427 C 647.6139496345911 907.2482857352392 649.9764496345911 904.7125 649.9848062158652 903.75 C 649.9931627971393 902.7875 649.55 902 649 902 C 648.45 902 645.6375 903.750401086903 642.75 905.8897801931178 C 639.8625 908.0291592993325 635.025 911.0091617671767 632 912.5120078994382 C 628.975 914.0148540316997 623.575 915.8287973819253 620 916.5429931221618 C 616.425 917.2571888623984 613.05 917.6636891236768 612.5 917.4463270361141 C 611.95 917.2289649485513 611.1625 915.9146205114226 610.75 914.5255616202726 L 610 912 L 599.75 912.6256469183209 C 591.1328798462691 913.151624934807 588.9424312720057 912.9724816151062 586 911.5011189678237 C 584.075 910.5385227899736 580.5875 908.2319816767292 578.25 906.3754720495027 C 575.9125 904.5189624222762 573.325 903.225 572.5 903.5 C 571.675 903.775 571 904.45 571 905 C 571 905.55 573.3625 907.6596386892967 576.25 909.6880859762149 C 579.1375 911.7165332631331 581.6125 913.516533263133 581.75 913.6880859762149 C 581.8875 913.8596386892967 581.325 914.675 580.5 915.5 C 579.2811247679207 916.7188752320793 579.1405623839604 918.4968622272618 579.75 924.9868215009988 L 580.5 932.9736430019976 L 576.5 932.4269827539505 C 574.3 932.1263196175246 570.475 931.4425766711358 568 930.9075539841979 C 565.525 930.3725312972599 560.4055084109727 928.7119587334316 556.6233520243838 927.2173927312463 C 552.010377883429 925.3945187896825 548.0053609153006 922.8540862912512 544.4568060297797 919.5 C 540.6323194525544 915.8851036792228 538.8667687849631 913.3226618726607 538.0834540053959 910.25 C 537.4875543024281 907.9125 537.2615775640711 904.7625 537.5812834757137 903.25 C 537.9009893873562 901.7375 538.6696873907244 899.15 539.2895012609765 897.5 C 539.9093151312285 895.85 542.2352375671574 892.7844568136294 544.4582177852628 890.6876818080652 C 546.6811980033683 888.5909068025011 549.85 886.4599105344532 551.5 885.9521345457366 L 554.5 885.0289054753428 L 555.25 877.5144527376714 C 555.6625 873.3815037319521 556.9747783160593 867.4125 558.1661740356874 864.25 C 559.3575697553154 861.0875 561.9450697553153 856.3284647082928 563.9161740356874 853.6743660184284 C 565.8872783160593 851.020267328564 570.425 846.927725849527 574 844.579829398346 C 577.575 842.2319329471651 582.4125 839.5659682388723 584.75 838.6554633799176 C 587.0875 837.7449585209629 591.1375 836.4839904504388 593.75 835.8533121120863 C 596.3625 835.2226337737337 603.675 834.3845331375056 610 833.9908662538016 C 616.325 833.5971993700977 625.55 833.4955035211458 630.5 833.7648754783529 Z " class="even" fill="#ffffff"></path><path d="M 689 833 C 688.45 833 687.3215205873055 834.0125 686.4922679717899 835.25 C 685.6630153562744 836.4875 684.9880153562744 837.8375 684.9922679717899 838.25 C 684.9965205873054 838.6625 686.125 837.875 687.5 836.5 C 688.875 835.125 690 833.775 690 833.5 C 690 833.225 689.55 833 689 833 Z " class="odd" fill="#000000"></path><path d="M 155.68932551368573 842.5 L 156.14664832642106 844.5 L 155.68932551368573 846 C 155.43779796668133 846.825 155.23200270095043 845.925 155.23200270095043 844 C 155.23200270095043 842.075 155.43779796668133 841.4 155.68932551368573 842.5 Z " class="even" fill="#ffffff"></path><path d="M 562 842 C 561.45 842 561 842.45 561 843 C 561 843.55 561.45 844 562 844 C 562.55 844 563 843.55 563 843 C 563 842.45 562.55 842 562 842 Z " class="odd" fill="#000000"></path><path d="M 749.5 843 C 749.225 843 748.7273712814921 843.5625 748.3941584033158 844.25 C 748.0609455251396 844.9375 748.2934455251395 845.95 748.9108250699825 846.5 C 749.704838750342 847.2073566460787 750.0284559441013 846.8415524536771 750.0166666666667 845.25 C 750.0074999999999 844.0125 749.775 843 749.5 843 Z " class="odd" fill="#000000"></path><path d="M 161.5496031746032 854 C 161.88244047619048 854.275 161.93046679197994 855.175 161.656328320802 856 C 161.30916288864293 857.0447693835183 161.12550503410998 856.8930258446911 161.05116959064327 855.5 C 160.99247076023394 854.4 161.21676587301587 853.725 161.5496031746032 854 Z " class="even" fill="#ffffff"></path><path d="M 585 863.5554184253358 C 582.352870889855 863.2497494465227 578.5441918384864 863.6460493179324 575.75 864.5178974793853 C 572.939906210873 865.3947073926546 569.9789967311195 867.2252039226566 568.5 869 C 567.125 870.65 565.7331931510189 873.4625 565.4070958911532 875.25 C 565.0809986312873 877.0375 564.9742208368816 879.4 565.169811903585 880.5 L 565.5254320248637 882.5 L 582.0127160124318 882.78551533277 C 591.0807222055944 882.9425487657935 599.625 882.80123877821 601 882.4714931381399 L 603.5 881.8719556107397 L 602.9260282339213 878.1859778053699 C 602.610343762578 876.1586900124164 601.260343762578 872.9509886154336 599.9260282339213 871.0577524787416 C 598.5917127052646 869.1645163420494 595.7 866.8189007677271 593.5 865.845273424692 C 591.3 864.8716460816569 587.475 863.8412113319466 585 863.5554184253358 Z " class="odd" fill="#000000"></path><path d="M 640 863.0917813667056 C 638.625 863.1549893066582 635.7 863.7009207954346 633.5 864.3049624528754 C 631.3 864.9090041103162 628.0375 866.8874955091904 626.25 868.7016100059293 C 624.0303252083347 870.9543340437508 622.7988445769902 873.3473483493608 622.3654866254913 876.25 L 621.7309732509826 880.5 L 622.3654866254913 881.75 C 622.8386252835684 882.6820896081258 627.705073799738 883 641.5 883 L 660 883 L 660 879.5 C 660 877.575 659.367756309994 874.7625 658.5950140222089 873.25 C 657.8222717344239 871.7375 656.1347717344239 869.5482631386737 654.8450140222089 868.3850291970527 C 653.555256309994 867.2217952554319 650.25 865.5290882693237 647.5 864.6234581168123 C 644.75 863.7178279643009 641.375 863.0285734267529 640 863.0917813667056 Z " class="odd" fill="#000000"></path><path d="M 444.4496613838388 865 C 444.72753070050567 865.275 445.19187901553255 873.15 445.4815465283429 882.5 C 445.77121404115326 891.85 445.62963976955865 913.225 445.1669370359104 930 L 444.3256593383681 960.5 L 444.1350518914063 912.5 C 444.0302177955773 886.1 444.1717920671719 864.725 444.4496613838388 865 Z " class="even" fill="#ffffff"></path><path d="M 582 867.0417868054329 C 583.375 867.0080884935103 586.75 867.6634809956505 589.5 868.4982145879669 C 592.25 869.3329481802834 595.234594829635 871.0248318221203 596.1324329547442 872.2579560142711 C 597.0302710798535 873.491080206422 597.9302710798536 875.4 598.1324329547442 876.5 C 598.4343933837276 878.1430223159605 597.8752890529308 878.5601007787864 595 878.8367200890898 C 592.8835209684466 879.0403375199644 590.2328047035068 878.4473999620586 588.2942780493556 877.3367200890898 L 585.0885560987114 875.5 L 582.5442780493556 877.25 C 580.877924054562 878.3961481152296 578.1021797907216 879 574.5 879 C 570.2777777777778 879 569 878.6515151515151 569 877.5 C 569 876.675 569.7875 874.6464632455627 570.75 872.992140545695 C 571.7125 871.3378178458272 574.075 869.3360055501089 576 868.543668777432 C 577.925 867.7513320047552 580.625 867.0754851173556 582 867.0417868054329 Z " class="even" fill="#ffffff"></path><path d="M 642 867.5641331158782 C 644.475 867.8314536878734 648.075 868.8263821526169 650 869.7750852597528 C 651.925 870.7237883668888 654.0625 872.7375 654.75 874.25 C 655.4375 875.7625 655.775 877.45 655.5 878 C 655.225 878.55 651.625 879 647.5 879 C 641.7222222222222 879 639.8851851851852 878.6555555555556 639.5 877.5 C 639.225 876.675 638.325 876 637.5 876 C 636.675 876 634.9875 876.6927686805263 633.75 877.5394859567252 C 632.5125 878.3862032329242 630.3795970509073 878.9487032329242 629.0102156686828 878.7894859567252 C 627.6408342864585 878.6302686805263 626.3714972416515 877.825 626.189466680223 877 C 626.0074361187943 876.175 627.015339067887 874.0375 628.42925101154 872.25 C 629.8431629551931 870.4625 632.4625 868.5675715352564 634.25 868.0390478561253 C 636.0375 867.5105241769943 639.525 867.2968125438831 642 867.5641331158782 Z " class="even" fill="#ffffff"></path><path d="M 161.66228070175438 870.5 L 162.16666666666666 871.5 L 161.66228070175438 873 C 161.38486842105263 873.825 161.1578947368421 873.375 161.1578947368421 872 C 161.1578947368421 870.625 161.38486842105263 869.95 161.66228070175438 870.5 Z " class="even" fill="#ffffff"></path><path d="M 174.5 870 C 174.775 870 175.225 870.45 175.5 871 C 175.775 871.55 175.55 872.225 175 872.5 C 174.45 872.775 174 872.325 174 871.5 C 174 870.675 174.225 870 174.5 870 Z " class="even" fill="#ffffff"></path><path d="M 208.5 873 C 209.325 873 210 873.225 210 873.5 C 210 873.775 209.55 874.225 209 874.5 C 208.45 874.775 207.775 874.55 207.5 874 C 207.225 873.45 207.675 873 208.5 873 Z " class="even" fill="#ffffff"></path><path d="M 499 878 C 499.55 878 500.225 878.675 500.5 879.5 C 500.79411764705884 880.3823529411765 500.4852941176471 880.8558823529412 499.75 880.65 C 499.0625 880.4575 498.3875 879.7824999999999 498.25 879.15 C 498.1125 878.5175 498.45 878 499 878 Z " class="even" fill="#ffffff"></path><path d="M 504 878 C 504.55 878 505 878.45 505 879 C 505 879.55 504.55 880 504 880 C 503.45 880 503 879.55 503 879 C 503 878.45 503.45 878 504 878 Z " class="even" fill="#ffffff"></path><path d="M 509 877.9707874234472 C 509.275 878.0036983925199 510.175 878.4668440519688 511 879 C 512 879.6462496339773 512.0833333333334 879.9744787091382 511.25 879.984687225483 C 510.5625 879.9931092514673 510 880.9 510 882 C 510 883.1 509.6625 884.0200364079815 509.25 884.0445253510699 C 508.8375 884.0690142941583 507.9375 883.3940142941583 507.25 882.5445253510699 L 506 881 L 507.25 879.4554746489301 C 507.9375 878.6059857058417 508.725 877.9378764543744 509 877.9707874234472 Z " class="even" fill="#ffffff"></path><path d="M 732 901.1578947368421 C 730.625 901.1578947368421 730.0625 901.3473684210526 730.75 901.578947368421 L 732 902 L 733.25 901.578947368421 C 733.9375 901.3473684210526 733.375 901.1578947368421 732 901.1578947368421 Z " class="odd" fill="#000000"></path><path d="M 208.5 922 C 208.775 922 209.225 922.45 209.5 923 C 209.775 923.55 209.55 924 209 924 C 208.45 924 208 923.55 208 923 C 208 922.45 208.225 922 208.5 922 Z " class="even" fill="#ffffff"></path><path d="M 650.75 935.0859527436869 C 651.712139567798 935.0197939151574 651.9330504810102 938.6270414457455 651.7092796043659 950.75 C 651.4739264185991 963.5004390180121 650.9031611160195 968.7853797958003 648.7123231932076 978.5 C 647.2238933846694 985.1 645.3297175627048 992.4125 644.5030435888418 994.75 C 643.3159338929826 998.1066665962692 642.211764643767 999.3297049865768 639.25 1000.5685590476065 C 637.1589458933475 1001.443210204413 634.2834396782117 1001.8855957759724 632.75 1001.5685590476065 C 630.3232736114137 1001.066836413317 629.7524343686999 1000.1477332062731 627.8940270345669 993.75 C 626.7357419035786 989.7625 625.6004849965445 985.825 625.3712339078245 985 C 625.0357054353359 983.7925423109285 624.7150737900552 983.7470357292285 623.7272068732576 984.7666666666667 C 622.9415118642044 985.5776250305912 619.7117847266442 986.027337171455 614.75 986.0166666666667 C 610.4875 986.0074999999999 606.775 985.55 606.5 985 C 606.225 984.45 605.55 984 605 984 C 604.45 984 603.7464449309333 985.2375 603.436544290963 986.75 C 603.1266436509926 988.2625 602.2266436509926 991.8625 601.436544290963 994.75 C 600.3950811856661 998.556134859332 599.305323136359 1000.3437774144447 597.474103757067 1001.25 C 595.4400880877685 1002.2565811664817 594.222993920177 1002.2445755495728 591.224103757067 1001.1883489727592 C 588.0236149901456 1000.0611181938532 587.1845464937526 999.0769069123969 585.2564019176207 994.1883489727592 C 584.022422972312 991.0597570377416 581.8981377598944 982.875 580.5357681122482 976 L 578.058732389255 963.5 L 579.0878177496834 953.5 C 579.653814697919 948 580.5480999103365 943.05 581.0751182217225 942.5 C 581.7045837499203 941.843085367189 582.0302190076787 942.0146280507835 582.0242559259227 943 C 582.019263351847 943.825 582.4718138970621 948.325 583.0299238041787 953 C 583.5880337112952 957.675 584.59711854463 962.0825364079815 585.2723345449226 962.7945253510699 C 585.9475505452151 963.5065142941583 588.3 964.0528188747573 590.5 964.0085355301788 C 592.7 963.9642521856003 598.8980475284438 963.3817157776189 604.2734389520974 962.714010179109 C 610.0682630812136 961.9942046415317 614.3426495940939 960.9756396183351 614.7734389520974 960.2119124602115 C 615.3501495848349 959.1894880097993 616.4281076520546 959.1606133281267 620 960.0719113868025 C 622.9991871808359 960.8370949895707 625.5005418794428 960.9045700055641 627.5 960.2742268042169 L 630.5 959.3284557552518 L 625.5 958.6691388055876 C 621.675286292332 958.1647990905719 619.324713707668 957.0394647290315 615.5 953.8816484345919 C 612.75 951.6111530528593 609.4875 948.2339431352766 608.25 946.37673750663 C 607.0125 944.5195318779835 606.0113751931502 942.4375 606.0252782070005 941.75 C 606.0391812208508 941.0625 606.8266812208508 939.6978323690042 607.7752782070005 938.7174052644539 C 608.7238751931502 937.7369781599035 610.4 936.9357242011129 611.5 936.9368409115859 C 612.6 936.9379576220589 614.625 937.9097047839409 616 939.0962790491014 C 617.375 940.2828533142621 620.075 941.9075931924917 622 942.7068121118341 C 623.925 943.5060310311763 626.5125 943.8989515002901 627.75 943.5799687098645 C 628.9875 943.260985919439 630 942.55 630 942 C 630 941.45 628.9875 940.9931092514673 627.75 940.984687225483 C 626.5125 940.9762651994986 624.825 940.5495817375145 624 940.036501754407 L 622.5 939.1036290578481 L 624 938.6359299405917 C 624.825 938.3786954261006 629.55 937.9077577215506 634.5 937.5894017082583 C 639.45 937.271045694966 644.85 936.5968724943748 646.5 936.0912390402777 C 648.15 935.5856055861806 650.0625 935.1332267527148 650.75 935.0859527436869 Z " class="even" fill="#ffffff"></path><path d="M 575.25 936.9722222222222 C 575.9375 936.9569444444445 576.725 937.1615814777458 577 937.4269711851141 C 577.275 937.6923608924823 576.9747648398837 940.9673608924824 576.332810755297 944.7047489628918 C 575.6908566707104 948.4421370333013 575.0158566707105 953.7120762255432 574.832810755297 956.4157249456517 C 574.6403344160101 959.2586641458474 573.9729196180693 961.4724017499561 573.25 961.6657249456517 C 572.5032921264459 961.8654095976634 571.5539520582718 960.2888067700839 570.8921743499197 957.75 C 570.2828702423756 955.4125 570.0147644050894 951.475 570.296383600395 949 C 570.5780027957005 946.525 571.5265243382366 942.8125 572.4042092504753 940.75 C 573.2818941627139 938.6875 574.5625 936.9875 575.25 936.9722222222222 Z " class="even" fill="#ffffff"></path><path d="M 239.73168356642103 943.5 C 240.00650804242986 944.6 240.741807434716 945.8306092514673 241.3656822159458 946.234687225483 C 242.08555960125926 946.7009452056881 241.86061066132274 946.9749692079783 240.75 946.984687225483 C 239.47613308129002 946.9958337608492 239.03156118882032 946.2517908722585 239.11600135047522 944.25 C 239.20491280493164 942.142209885889 239.3486936069849 941.967061735192 239.73168356642103 943.5 Z " class="even" fill="#ffffff"></path><path d="M 507 949.2320027009505 C 505.075 949.2320027009505 504.4 949.4377979666814 505.5 949.6893255136858 L 507.5 950.1466483264211 L 509 949.6893255136858 C 509.825 949.4377979666814 508.925 949.2320027009505 507 949.2320027009505 Z " class="odd" fill="#000000"></path><path d="M 513.5 950.0511695906432 C 512.1069741553089 950.12550503411 511.9552306164816 950.3091628886428 513 950.656328320802 C 513.825 950.9304667919799 514.725 950.8824404761905 515 950.5496031746031 C 515.275 950.2167658730159 514.6 949.9924707602339 513.5 950.0511695906432 Z " class="odd" fill="#000000"></path><path d="M 461 952 C 460.45 952 460 952.45 460 953 C 460 953.55 460.45 954 461 954 C 461.55 954 462 953.55 462 953 C 462 952.45 461.55 952 461 952 Z " class="odd" fill="#000000"></path><path d="M 269.5 953.0511695906432 C 270.6 952.9924707602339 271.275 953.2167658730159 271 953.5496031746031 C 270.725 953.8824404761905 269.825 953.9304667919799 269 953.656328320802 C 267.95523061648163 953.3091628886428 268.1069741553088 953.12550503411 269.5 953.0511695906432 Z " class="even" fill="#ffffff"></path><path d="M 731.5 959.0511695906432 C 730.1069741553089 959.12550503411 729.9552306164816 959.3091628886428 731 959.656328320802 C 731.825 959.9304667919799 732.725 959.8824404761905 733 959.5496031746031 C 733.275 959.2167658730159 732.6 958.9924707602339 731.5 959.0511695906432 Z " class="odd" fill="#000000"></path><path d="M 246.5 974 C 246.775 974 247.225 974.45 247.5 975 C 247.775 975.55 247.55 976 247 976 C 246.45 976 246 975.55 246 975 C 246 974.45 246.225 974 246.5 974 Z " class="even" fill="#ffffff"></path><path d="M 444.72004342079686 979.5 C 444.94002652238186 981.15 444.94365624085935 984.3 444.728109461858 986.5 C 444.51256268285664 988.7 444.3325765088326 987.35 444.3281401862489 983.5 C 444.3237038636653 979.65 444.50006031921185 977.85 444.72004342079686 979.5 Z " class="even" fill="#ffffff"></path><path d="M 609.5496031746031 994 C 609.8824404761905 994.275 609.9304667919799 995.175 609.656328320802 996 C 609.3091628886428 997.0447693835184 609.12550503411 996.8930258446911 609.0511695906432 995.5 C 608.9924707602339 994.4 609.2167658730159 993.725 609.5496031746031 994 Z " class="even" fill="#ffffff"></path><path d="M 665.25 994.4630715866267 C 663.4625 994.208382213982 662 994.225 662 994.5 C 662 994.775 662.5625 996.0125 663.25 997.25 C 663.9375 998.4875 664.7585601423327 999.725 665.0745780940726 1000 C 665.3905960458126 1000.275 666.7263254576866 1002.525 668.0428656760149 1005 C 669.3594058943432 1007.475 671.1258457520105 1010.3021676309958 671.9682875819423 1011.2825947355461 C 672.810729411874 1012.2630218400965 674.4 1013.058164296449 675.5 1013.0495779718851 C 676.6 1013.0409916473212 678.4 1012.3656355336672 679.5 1011.5487866082094 C 680.6 1010.7319376827518 682.175 1010.0693316343807 683 1010.0763287229404 C 683.825 1010.0833258115 685.0625 1009.3940142941583 685.75 1008.5445253510699 C 686.7933631287614 1007.2553247088752 686.380089386284 1006.2689161720226 683.25 1002.5774844078232 C 681.1875 1000.145100832126 678.825 997.838723895515 678 997.4522023264656 C 677.175 997.065680757416 674.7 996.3391949878776 672.5 995.837789505269 C 670.3 995.3363840226604 667.0375 994.7177609592713 665.25 994.4630715866267 Z " class="odd" fill="#000000"></path><path d="M 552.25 998.1060786609393 C 551.8375 998.1644219244558 550.2625 998.8394219244559 548.75 999.6060786609393 C 547.114035576718 1000.4353171044145 545.7638909957378 1002.114035576718 545.4171642492478 1003.75 L 544.8343284984956 1006.5 L 545.4171642492478 1006.75 C 545.7377239121615 1006.8875 546.9014924681873 1006.4375 548.0033165959717 1005.75 C 549.1051407237562 1005.0625 549.9851043157747 1004.05 549.9587912449019 1003.5 C 549.932478174029 1002.95 550.6260221138232 1001.825 551.5 1001 C 552.3739778861768 1000.175 553.0690142941583 999.1625 553.0445253510699 998.75 C 553.0200364079815 998.3375 552.6625 998.0477353974227 552.25 998.1060786609393 Z " class="odd" fill="#000000"></path><path d="M 539.5 1003 C 539.225 1003 538.775 1003.45 538.5 1004 C 538.225 1004.55 538.45 1005 539 1005 C 539.55 1005 540 1004.55 540 1004 C 540 1003.45 539.775 1003 539.5 1003 Z " class="odd" fill="#000000"></path><path d="M 536 1006 C 535.45 1006 534.4609686106995 1007.0125 533.802152468221 1008.25 C 532.7516531781077 1010.223225590109 532.813158602528 1010.4077418633697 534.302152468221 1009.75 C 535.2359686106995 1009.3375 536.225 1009 536.5 1009 C 536.775 1009 537 1008.325 537 1007.5 C 537 1006.675 536.55 1006 536 1006 Z " class="odd" fill="#000000"></path><path d="M 542 1010 C 541.45 1010 540.775 1010.675 540.5 1011.5 C 540.225 1012.325 539.9799635920185 1013.3375 539.9554746489301 1013.75 C 539.9309857058417 1014.1625 540.6260221138232 1013.825 541.5 1013 C 542.3739778861768 1012.175 543.0690142941583 1011.1625 543.0445253510699 1010.75 C 543.0200364079815 1010.3375 542.55 1010 542 1010 Z " class="odd" fill="#000000"></path><path d="M 270.5496031746032 1011 C 270.8824404761905 1011.275 270.93046679197994 1012.175 270.656328320802 1013 C 270.3091628886429 1014.0447693835184 270.12550503410995 1013.8930258446911 270.05116959064327 1012.5 C 269.9924707602339 1011.4 270.2167658730159 1010.725 270.5496031746032 1011 Z " class="even" fill="#ffffff"></path><path d="M 270.5496031746032 1017 C 270.8824404761905 1017.275 270.93046679197994 1018.175 270.656328320802 1019 C 270.3091628886429 1020.0447693835184 270.12550503410995 1019.8930258446911 270.05116959064327 1018.5 C 269.9924707602339 1017.4 270.2167658730159 1016.725 270.5496031746032 1017 Z " class="even" fill="#ffffff"></path><path d="M 282.5 1019 C 283.325 1019 284 1019.225 284 1019.5 C 284 1019.775 283.55 1020.225 283 1020.5 C 282.45 1020.775 281.775 1020.55 281.5 1020 C 281.225 1019.45 281.675 1019 282.5 1019 Z " class="even" fill="#ffffff"></path><path d="M 612.6999544634436 1031.5 C 612.4647797677662 1030.4 612.2785066244724 1031.75 612.2860141450129 1034.5 C 612.2937476964111 1037.3327949594043 612.4790828912811 1038.1996769756424 612.7136045007901 1036.5 C 612.9412716759269 1034.85 612.9351291591211 1032.6 612.6999544634436 1031.5 Z " class="odd" fill="#000000"></path><path d="M 611.6417750667385 1040.5 C 611.3756408852955 1039.95 611.1745690287664 1040.85 611.1949487188963 1042.5 C 611.2184413179406 1044.4020303143077 611.3955366291837 1044.7680202095385 611.6788290487927 1043.5 C 611.924583540106 1042.4 611.9079092481816 1041.05 611.6417750667385 1040.5 Z " class="odd" fill="#000000"></path><path d="M 315 1056 C 315.55 1056 316 1056.45 316 1057 C 316 1057.55 315.55 1058 315 1058 C 314.45 1058 314 1057.55 314 1057 C 314 1056.45 314.45 1056 315 1056 Z " class="even" fill="#ffffff"></path><path d="M 554.5496031746031 1060 C 554.2167658730159 1059.725 553.9924707602339 1060.4 554.0511695906432 1061.5 C 554.12550503411 1062.8930258446912 554.3091628886428 1063.0447693835183 554.656328320802 1062 C 554.9304667919799 1061.175 554.8824404761905 1060.275 554.5496031746031 1060 Z " class="odd" fill="#000000"></path><path d="M 328.5 1064 C 328.775 1064 329 1064.45 329 1065 C 329 1065.55 328.55 1066 328 1066 C 327.45 1066 327.225 1065.55 327.5 1065 C 327.775 1064.45 328.225 1064 328.5 1064 Z " class="even" fill="#ffffff"></path><path d="M 340.75 1068.015312774517 C 341.86061066132277 1068.0250307920217 342.08555960125926 1068.2990547943118 341.3656822159458 1068.765312774517 C 340.741807434716 1069.1693907485326 340.00650804242986 1070.4 339.731683566421 1071.5 C 339.3486936069849 1073.032938264808 339.20491280493167 1072.857790114111 339.11600135047524 1070.75 C 339.0315611888203 1068.7482091277416 339.47613308129 1068.004166239151 340.75 1068.015312774517 Z " class="even" fill="#ffffff"></path><path d="M 400.5 1084 C 401.325 1084 402 1084.225 402 1084.5 C 402 1084.775 401.325 1085.225 400.5 1085.5 C 399.675 1085.775 399 1085.55 399 1085 C 399 1084.45 399.675 1084 400.5 1084 Z " class="even" fill="#ffffff"></path><path d="M 660.6417750667385 1084.5 C 660.9079092481816 1085.05 660.924583540106 1086.4 660.6788290487927 1087.5 C 660.3955366291837 1088.7680202095385 660.2184413179406 1088.4020303143077 660.1949487188963 1086.5 C 660.1745690287664 1084.85 660.3756408852955 1083.95 660.6417750667385 1084.5 Z " class="even" fill="#ffffff"></path><path d="M 355 1085.5 C 355.55 1085.775 356.0125 1087.2375 356.02777777777777 1088.75 C 356.04305555555555 1090.2625 355.7055555555555 1091.1179592000215 355.27777777777777 1090.6510204444921 C 354.85 1090.184081688963 354.3875 1088.721581688963 354.25 1087.4010204444921 C 354.1107935436101 1086.0640702533024 354.44317417444046 1085.2215870872203 355 1085.5 Z " class="even" fill="#ffffff"></path><path d="M 361 1094 C 361.55 1094 362 1094.45 362 1095 C 362 1095.55 361.55 1096 361 1096 C 360.45 1096 360 1095.55 360 1095 C 360 1094.45 360.45 1094 361 1094 Z " class="even" fill="#ffffff"></path><path d="M 361.5496031746032 1102 C 361.8824404761905 1102.275 361.93046679197994 1103.175 361.656328320802 1104 C 361.3091628886429 1105.0447693835183 361.12550503410995 1104.8930258446912 361.05116959064327 1103.5 C 360.9924707602339 1102.4 361.2167658730159 1101.725 361.5496031746032 1102 Z " class="even" fill="#ffffff"></path></g></svg>